<?xml version="1.0" standalone="no"?>
<!DOCTYPE svg PUBLIC "-//W3C//DTD SVG 20010904//EN"
 "http://www.w3.org/TR/2001/REC-SVG-20010904/DTD/svg10.dtd">
<svg version="1.0" xmlns="http://www.w3.org/2000/svg"
 width="640.000000pt" height="640.000000pt" viewBox="0 0 640.000000 640.000000"
 preserveAspectRatio="xMidYMid meet">

<g transform="translate(0.000000,640.000000) scale(0.100000,-0.100000)"
fill="#000000" stroke="none">
<path d="M3022 6090 c-109 -29 -206 -84 -295 -170 -179 -170 -253 -406 -198
-632 24 -102 89 -270 170 -442 114 -241 406 -754 444 -781 27 -19 87 -19 113
-1 38 27 282 452 419 731 164 335 221 515 212 670 -11 179 -81 329 -214 455
-137 131 -286 190 -477 189 -66 0 -127 -7 -174 -19z m303 -195 c194 -51 340
-223 361 -428 16 -159 -130 -502 -462 -1084 -11 -18 -21 -33 -24 -33 -3 0 -13
15 -24 33 -244 428 -399 752 -447 937 -16 65 -20 98 -15 147 31 300 322 503
611 428z"/>
<path d="M3093 5741 c-148 -51 -238 -177 -236 -331 3 -231 220 -390 443 -324
229 68 318 342 174 537 -84 115 -246 165 -381 118z m183 -206 c39 -26 64 -74
64 -127 0 -89 -92 -156 -179 -129 -22 6 -53 27 -70 46 -25 29 -31 44 -31 84 0
116 123 188 216 126z"/>
<path d="M1913 3861 c-77 -26 -136 -80 -175 -158 l-33 -67 -4 -213 -3 -213
-178 0 c-177 0 -179 0 -209 -26 l-31 -26 0 -405 0 -405 29 -29 29 -29 181 0
180 0 3 -587 3 -588 27 -57 c33 -70 103 -141 163 -164 l45 -17 0 -211 c0 -209
0 -213 26 -265 17 -34 41 -62 67 -79 40 -27 42 -27 249 -30 196 -3 212 -2 253
18 48 23 85 66 103 119 8 22 12 109 12 237 l0 204 529 0 529 0 4 -212 c3 -195
5 -216 25 -253 26 -50 58 -80 105 -100 29 -12 78 -15 230 -15 165 0 199 3 233
19 51 23 101 79 114 128 6 21 11 126 11 234 l0 196 59 22 c75 27 143 91 179
169 l27 57 3 588 3 587 180 0 181 0 29 29 29 29 0 405 0 405 -31 26 c-30 26
-32 26 -209 26 l-178 0 -3 214 -4 213 -35 69 c-25 49 -49 79 -85 106 -94 72
-12 68 -1379 68 -1156 -1 -1234 -2 -1283 -19z m2548 -219 c29 -32 29 -33 29
-157 l0 -125 -1290 0 -1290 0 0 124 c0 111 2 126 21 150 12 15 31 32 43 36 11
5 569 8 1239 7 l1219 -2 29 -33z m-1361 -892 l0 -410 -594 0 c-547 0 -595 1
-598 17 -2 9 -2 193 0 410 l2 393 595 0 595 0 0 -410z m1392 4 c2 -223 1 -408
-1 -410 -2 -2 -271 -4 -598 -4 l-593 0 0 410 0 410 595 0 595 0 2 -406z
m-2792 -4 l0 -260 -110 0 -110 0 0 260 0 260 110 0 110 0 0 -260z m3220 0 l0
-260 -110 0 -110 0 0 260 0 260 110 0 110 0 0 -260z m-428 -627 c2 -9 1 -236
-2 -504 l-5 -489 -28 -27 -27 -28 -1230 0 -1230 0 -27 28 -28 27 -5 489 c-3
268 -4 495 -2 504 3 16 97 17 1292 17 1195 0 1289 -1 1292 -17z m-2042 -1443
l0 -190 -155 0 -155 0 0 190 0 190 155 0 155 0 0 -190z m1778 3 l-3 -188 -152
-3 -153 -3 0 191 0 190 155 0 155 0 -2 -187z"/>
<path d="M2283 1915 c-98 -27 -175 -93 -216 -184 -29 -65 -29 -188 0 -252 62
-137 215 -219 353 -190 215 46 325 265 231 456 -68 137 -226 210 -368 170z
m163 -229 c29 -29 34 -41 34 -79 0 -112 -130 -161 -207 -77 -67 71 -7 190 94
190 38 0 50 -5 79 -34z"/>
<path d="M3967 1919 c-94 -22 -175 -86 -218 -174 -94 -191 16 -410 231 -456
138 -29 291 53 353 190 29 64 29 187 0 252 -42 93 -119 158 -220 184 -63 17
-90 17 -146 4z m138 -221 c58 -46 66 -124 17 -173 -76 -77 -202 -26 -202 81 0
39 5 51 34 80 29 29 41 34 79 34 30 0 53 -7 72 -22z"/>
<path d="M2949 1852 c-23 -21 -31 -37 -32 -64 -1 -42 24 -85 59 -98 14 -6 115
-10 224 -10 109 0 210 4 224 10 35 13 60 56 59 98 -1 27 -9 43 -32 64 l-31 28
-220 0 -220 0 -31 -28z"/>
<path d="M2963 1510 c-42 -25 -59 -80 -37 -125 26 -56 45 -60 274 -60 229 0
248 4 274 60 22 45 5 100 -37 125 -29 18 -52 20 -237 20 -185 0 -208 -2 -237
-20z"/>
</g>
</svg>
